<?xml version="1.0" encoding="utf-8"?>
<!-- Generator: Adobe Illustrator 16.0.0, SVG Export Plug-In . SVG Version: 6.00 Build 0)  -->
<svg version="1.2" baseProfile="tiny" id="Layer_1" xmlns="http://www.w3.org/2000/svg" xmlns:xlink="http://www.w3.org/1999/xlink"
	 x="0px" y="0px" width="20px" height="20px" viewBox="0 0 20 20" xml:space="preserve">
<g>
	<path fill-rule="evenodd" fill="#FE9700" d="M4.758,19.932c-0.912,0.004-1.824,0.008-2.735,0.012c-0.394-0.61-0.26-1.293-0.2-1.938
		C2.577,9.908,9.483,2.912,17.547,2.074c0.813-0.084,1.655-0.461,2.448,0.102C19.998,3.02,19.999,3.863,20,4.707
		c-0.577,0.416-1.273,0.337-1.917,0.423c-6.78,0.903-12.036,6.117-12.991,12.89C5.002,18.658,5.267,19.367,4.758,19.932z"/>
	<path fill-rule="evenodd" fill="#FEEA3B" d="M4.758,19.932C4.82,11.452,11.41,4.87,20,4.707c-0.002,0.854-0.004,1.708-0.006,2.562
		c-0.494,0.36-1.094,0.318-1.65,0.395C12.882,8.41,8.506,12.698,7.641,18.137c-0.096,0.604,0.174,1.291-0.36,1.809
		C6.439,19.941,5.599,19.937,4.758,19.932z"/>
	<path fill-rule="evenodd" fill="#F34336" d="M19.996,2.176c-9.735-0.12-18.089,7.887-17.973,17.768
		c-0.592,0.001-1.184,0.001-1.776,0.002c-0.261-0.265-0.261-0.594-0.238-0.932C0.344,14.063,2.158,9.718,5.61,6.167
		c3.491-3.591,7.796-5.638,12.821-6.063c0.526-0.044,1.095-0.156,1.564,0.247C19.996,0.958,19.996,1.567,19.996,2.176z"/>
	<path fill-rule="evenodd" fill="#8AC24A" d="M7.281,19.946c0.235-7.177,5.783-12.709,12.714-12.678
		c0.001,0.853,0.001,1.705,0.001,2.558c-0.406,0.312-0.9,0.327-1.375,0.391c-4.456,0.597-8.036,4.282-8.486,8.742
		c-0.036,0.35,0.044,0.742-0.323,0.985C8.968,19.945,8.125,19.945,7.281,19.946z"/>
	<path fill-rule="evenodd" fill="#2195F2" d="M9.812,19.944C10.025,14.168,14.3,9.921,19.996,9.826c0,0.846-0.001,1.69-0.001,2.536
		c-0.363,0.317-0.826,0.337-1.268,0.416c-3.233,0.585-5.613,3.078-6.056,6.348c-0.04,0.296-0.021,0.61-0.299,0.818
		C11.519,19.944,10.666,19.944,9.812,19.944z"/>
	<path fill-rule="evenodd" fill="#663AB6" d="M12.373,19.944c0.137-4.308,3.227-7.382,7.622-7.583
		c0.002,0.714,0.004,1.428,0.005,2.141c-0.178,0.188-0.41,0.227-0.653,0.259c-2.288,0.308-3.906,1.731-4.516,3.932
		c-0.117,0.424-0.1,0.903-0.436,1.254C13.721,19.946,13.046,19.945,12.373,19.944z"/>
</g>
</svg>
