<?xml version="1.0" encoding="UTF-8" standalone="no"?>
<!DOCTYPE svg PUBLIC "-//W3C//DTD SVG 1.1//EN" "http://www.w3.org/Graphics/SVG/1.1/DTD/svg11.dtd">
<svg width="250px" height="250px" version="1.1" xmlns="http://www.w3.org/2000/svg" xmlns:xlink="http://www.w3.org/1999/xlink" xml:space="preserve" xmlns:serif="http://www.serif.com/" style="fill-rule:evenodd;clip-rule:evenodd;stroke-linecap:round;stroke-linejoin:round;stroke-miterlimit:1.5;">
    <g>
        <rect x="41.516" y="128.93" width="166.969" height="48.777" style="fill:#fff;stroke:#000;stroke-width:3.5px;"/>
        <path d="M41.516,128.93L52.942,87.656L200.5,87.656L208.484,128.93L41.516,128.93Z" style="fill:none;stroke:#000;stroke-width:3.5px;"/>
        <path d="M183.834,106.855C183.834,106.855 49.872,125.556 55.551,109.617C56.548,106.82 46.562,101.774 47.717,97.786C51.36,85.217 64.188,85.017 70.791,103.416L79.595,104.201C102.769,98.9 128.758,98.53 153.409,96.173C162.364,95.317 169.726,91.967 178.715,91.18C178.229,91.181 174.91,79.574 184.883,78.108C189.009,77.501 194.242,77.977 193.9,86.051C193.675,91.381 190.082,94.293 193.464,97.579C206.253,110.004 192.268,128.986 183.834,106.855Z" style="fill:#fff;stroke:#000;stroke-width:3.5px;"/>
        <g>
            <g>
                <path d="M96.403,116.902C72.466,135.16 35.328,78.407 64.659,68.695C70.221,66.854 81.878,58.668 85.413,45.338C93.949,13.158 149.834,-4.722 176.065,35.572C199.039,70.863 160.027,116.275 124.799,106.831C113.524,103.808 104.133,111.006 96.403,116.902Z" style="fill:#fff;stroke:#000;stroke-width:3.5px;"/>
                <path d="M115.398,49.401C118.781,54.371 117.323,61.113 112.144,64.446C106.965,67.779 100.014,66.45 96.631,61.479C93.248,56.509 94.706,49.767 99.885,46.434C105.064,43.101 112.015,44.43 115.398,49.401Z" style="fill:#fff;stroke:#0c0c0c;stroke-width:3.5px;"/>
                <path d="M132.76,76.274C136.143,81.244 134.684,87.986 129.506,91.319C124.327,94.652 117.376,93.323 113.993,88.352C110.61,83.382 112.068,76.64 117.247,73.307C122.426,69.974 129.377,71.303 132.76,76.274Z" style="fill:#fff;stroke:#0c0c0c;stroke-width:3.5px;"/>
            </g>
            <path d="M100.976,75.5L86.649,76.552L95.785,89.531L100.976,75.5Z" style="fill:#fff;stroke:#0c0c0c;stroke-width:3.5px;"/>
            <path d="M73.303,74.049L63.274,81.73L76.093,79.361L71.925,85.502L78.884,85.356L72.001,91.72L84.477,89.838L80.388,96.396L86.174,96.937L83.138,101.052L89.616,101.367L85.987,106.01L94.666,105.623L86.385,110.856" style="fill:#fff;stroke:#0c0c0c;stroke-width:3.5px;"/>
        </g>
        <path d="M65.814,108.024L169.648,108.795C185.798,88.845 195.855,104.979 188.193,119.272C186.848,121.781 195.628,127.577 193.963,131.182C188.716,142.543 176.489,141.348 172.822,123.429L164.56,121.745C141.771,124.204 117.006,121.748 93.23,121.294C84.593,121.13 77.117,123.469 68.457,123.236C68.92,123.287 70.429,134.5 60.737,134.796C56.728,134.918 51.819,133.909 53.289,126.395C54.26,121.434 58.09,119.099 55.34,115.661C44.942,102.662 60.934,86.418 65.814,108.024Z" style="fill:#fff;stroke:#000;stroke-width:3.5px;"/>
    </g>
    <g>
        <path d="M157.786,140.086C159.445,139.274 148.279,118.352 149.348,117.162C157.672,107.897 162.537,140.341 163.143,139.165C165.39,134.805 172.829,152.296 171.824,166.198C171.766,167.001 172.147,167.845 172.064,168.784C171.859,171.114 176.35,175.094 179.877,178.445C189.016,187.13 194.033,210.215 177.317,217.593C174.556,218.812 170.32,222.525 165.154,220.397C163.773,219.828 164.213,217.339 163.056,217.174C160.96,216.874 162.699,217.897 161.288,220.088C139.695,223.873 128.891,188.024 151.713,169.559C159.964,162.883 149.727,141.392 157.786,140.086Z" style="fill:#fff;stroke:#000;stroke-width:4px;"/>
        <path d="M142.293,157.417C139.203,146.7 147.556,142.853 156.271,139.251C153.804,147.028 150.647,154.262 142.293,157.417Z" style="fill:#fff;stroke:#000;stroke-width:4px;"/>
    </g>
    <g>
        <path d="M58.898,207.166C65.159,215.686 79.562,210.405 78.072,200.819C76.955,193.634 58.497,221.152 74.289,214.71C84.119,210.701 101.588,202.617 94.65,219.456C87.057,237.884 74.877,210.536 118.404,205.122" style="fill:#fff;stroke:#000;stroke-width:4px;"/>
        <path d="M39.034,185.883C39.796,186.979 42.17,192.257 47.477,193.821C56.673,196.53 59.799,207.089 58.87,207.807C53.945,205.858 47.392,214.33 42.357,211.264C36.336,207.597 29.797,206.669 27.63,209.951C25.63,208.084 28.085,201.211 40.407,203.633C34.316,202.436 30.756,200.296 32.825,192.985C35.899,196.603 38.943,198.674 42.786,198.194C38.049,195.743 35.782,190.186 39.034,185.883Z" style="fill:#fff;stroke:#000;stroke-width:4px;"/>
        <path d="M84.892,210.561C96.789,208.649 92.075,200.106 96.569,194.288C90.243,195.218 84.701,202.551 84.892,210.561Z" style="fill:#fff;stroke:#000;stroke-width:4px;"/>
        <path d="M71.101,215.056C65.216,226.558 74.353,227.505 75.858,234.866C79.05,228.801 77.079,219.63 71.101,215.056Z" style="fill:#fff;stroke:#000;stroke-width:4px;"/>
    </g>
</svg>
