<?xml version="1.0" encoding="UTF-8" standalone="no"?>
<!DOCTYPE svg PUBLIC "-//W3C//DTD SVG 1.1//EN" "http://www.w3.org/Graphics/SVG/1.1/DTD/svg11.dtd">
<svg width="250px" height="250px" version="1.1" xmlns="http://www.w3.org/2000/svg" xmlns:xlink="http://www.w3.org/1999/xlink" xml:space="preserve" xmlns:serif="http://www.serif.com/" style="fill-rule:evenodd;clip-rule:evenodd;stroke-linecap:round;stroke-linejoin:round;stroke-miterlimit:1.5;">
    <g>
        <g>
            <path d="M214.336,51.301L220.172,51.373C220.172,51.373 223.202,33.474 221.876,28.058C219.513,24.984 217.768,21.862 218.592,18.673L200.164,18.78C201.469,23.259 196.397,28.333 196.397,28.333L199.085,51.402L205.07,51.217L204.429,59.243C197.114,59.884 191.177,62.055 183.866,63.619C178.875,92.92 156.356,122.79 136.905,127.173C162.33,131.759 187.505,92.559 188.643,73.161C189.767,90.046 193.346,112.411 196.938,127.949C196.049,154.686 196.423,205.608 199.29,230.848L204.266,230.705C201.44,204.197 201.894,154.181 203.754,128.342L218.758,128.232C219.068,154.864 222.661,203.909 220.927,231.079L226.445,231.327C228.461,204.559 224.494,153.368 225.444,126.703C229.902,106.637 225.829,123.364 231.573,76.382C236.301,106.918 229.603,145.012 233.21,156C244.668,140.22 244.112,66.313 236.366,64.72L214.682,59.056L214.336,51.301Z" style="fill:#fff;stroke:#000;stroke-width:4px;"/>
        </g>
    </g>
    <path d="M125,26L125,231.327" style="fill:none;stroke:#000;stroke-width:4px;"/>
    <g>
        <g>
            <path d="M35.206,62.931L29.505,63.002C29.505,63.002 26.544,45.516 27.839,40.226C30.147,37.222 31.852,34.173 31.047,31.058L49.049,31.163C47.775,35.538 52.729,40.494 52.729,40.494L50.103,63.03L44.256,62.849L44.883,70.689C52.029,71.315 57.828,73.436 64.97,74.964C69.846,103.587 84.029,121.043 103.03,125.326C78.193,129.805 61.415,103.235 60.304,84.286C55.829,99.257 52.259,121.072 52.2,137.806C53.069,163.925 52.704,213.668 49.903,238.324L45.043,238.185C47.803,212.29 47.36,163.431 45.542,138.189L30.886,138.082C30.583,164.098 27.073,212.009 28.766,238.55L23.377,238.792C21.407,212.643 25.282,162.637 24.355,136.589C21.003,117.053 24.887,128.567 17.39,82.547C12.772,112.377 15.407,154.498 11.884,165.232C9.225,149.769 7.095,74.665 14.661,73.109L34.868,70.506L35.206,62.931Z" style="fill:#fff;stroke:#000;stroke-width:4px;"/>
            <path d="M46.791,126.543C42.99,128.949 34.609,128.916 29.581,125.934" style="fill:#fff;stroke:#000;stroke-width:3px;"/>
        </g>
    </g>
    <g>
        <rect x="121" y="146" width="10" height="10" style="fill:#fff;"/>
        <path d="M80,141C112.452,155.716 144.781,153.129 177,134.925L163,134.925L177,134.925L170,146" style="fill:none;stroke:#000;stroke-width:3px;"/>
    </g>
    <g>
        <path d="M121.025,167.18L131.016,166.759L131.437,176.75L121.446,177.171L121.025,167.18Z" style="fill:#fff;"/>
        <path d="M171.769,160.036C139.966,176.106 107.556,174.883 74.599,158.053L88.587,157.463L74.599,158.053L82.059,168.823" style="fill:none;stroke:#000;stroke-width:3px;"/>
    </g>
</svg>
