<?xml version="1.0" encoding="UTF-8" standalone="no"?>
<!DOCTYPE svg PUBLIC "-//W3C//DTD SVG 1.1//EN" "http://www.w3.org/Graphics/SVG/1.1/DTD/svg11.dtd">
<svg width="250px" height="250px" version="1.1" xmlns="http://www.w3.org/2000/svg" xmlns:xlink="http://www.w3.org/1999/xlink" xml:space="preserve" xmlns:serif="http://www.serif.com/" style="fill-rule:evenodd;clip-rule:evenodd;stroke-linecap:round;stroke-linejoin:round;stroke-miterlimit:1.5;">
    <g>
        <g>
            <path d="M214.336,51.301C214.336,51.301 212.768,31.862 213.592,28.673L171.512,43.121L205.07,51.217L204.429,59.243C197.114,59.884 191.177,62.055 183.866,63.619C178.875,92.92 156.356,122.79 136.905,127.173C162.33,131.759 187.505,92.559 188.643,73.161C189.767,90.046 193.346,112.411 196.938,127.949C196.049,154.686 196.423,205.608 199.29,230.848L204.266,230.705C201.44,204.197 201.894,154.181 203.754,128.342L218.758,128.232C219.068,154.864 222.661,203.909 220.927,231.079L226.445,231.327C228.461,204.559 224.494,153.368 225.444,126.703C229.902,106.637 225.829,123.364 231.573,76.382C236.301,106.918 229.603,145.012 233.21,156C244.668,140.22 244.112,66.313 236.366,64.72L214.682,59.056L214.336,51.301Z" style="fill:#fff;stroke:#000;stroke-width:4px;"/>
        </g>
    </g>
    <path d="M125,26L125,231.327" style="fill:none;stroke:#000;stroke-width:4px;"/>
    <g>
        <g>
            <path d="M41.317,76.717L36.201,76.77C36.201,76.77 33.532,62.625 34.691,58.346C36.76,55.918 38.288,53.453 37.563,50.932L53.718,51.028C52.578,54.566 57.027,58.578 57.027,58.578L54.687,76.805L49.44,76.656L50.007,82.998C56.421,83.509 61.626,85.228 68.037,86.468C72.433,109.624 85.173,123.753 102.228,127.228C79.942,130.836 64.867,109.334 63.856,94.005C59.851,106.113 56.663,123.756 56.622,137.292C57.42,158.42 57.128,198.657 54.632,218.599L48.004,218.482C50.462,197.538 52.296,158.017 50.647,137.598L39.761,137.504C39.508,158.548 35.259,197.3 36.797,218.77L30.827,218.962C29.042,197.809 32.483,157.362 31.632,136.291C30.995,120.517 34.372,130.867 27.611,93.638C23.488,117.764 23.615,150.772 20.461,159.453C18.064,146.943 16.1,86.192 22.888,84.937L41.019,82.844L41.317,76.717Z" style="fill:#fff;stroke:#000;stroke-width:4px;"/>
            <ellipse cx="45" cy="99.022" rx="6" ry="5.978" style="fill:#fff;stroke:#000;stroke-width:3px;"/>
            <path d="M209.87,92.044C206.315,87.196 203.323,83.497 200.665,78.669C196.642,71.361 209.25,67.248 209.875,77.491C209.608,67.67 223.31,70.844 219.246,78.572C216.839,83.15 213.526,87.532 209.87,92.044Z" style="fill:none;stroke:#000;stroke-width:3px;"/>
        </g>
    </g>
    <g>
        <path d="M129.595,187.444L118.323,190.629L121.042,200.252L132.315,197.067L129.595,187.444Z" style="fill:#fff;"/>
        <path d="M70.745,198.877C111.329,202.702 147.069,189.914 178.438,162.134L162.656,166.593L178.438,162.134L173.559,175.021" style="fill:none;stroke:#000;stroke-width:3px;"/>
    </g>
    <g>
        <path d="M129.854,153.606L119.975,155.155L121.523,165.034L131.403,163.486L129.854,153.606Z" style="fill:#fff;"/>
        <path d="M78.695,156.565C113.034,166.078 144.573,158.515 173.584,135.541L159.753,137.709L173.584,135.541L168.383,147.566" style="fill:none;stroke:#000;stroke-width:3px;"/>
    </g>
    <g>
        <path d="M128.69,54.007L120.139,53.704L120.493,43.71L129.044,44.013L128.69,54.007Z" style="fill:#fff;"/>
        <path d="M75.777,55.459C104.046,41.735 131.598,45.3 158.501,64.469L146.531,64.044L158.501,64.469L152.908,53.189" style="fill:none;stroke:#000;stroke-width:3px;"/>
    </g>
    <g>
        <path d="M128.69,87.9L120.139,87.597L120.493,77.603L129.044,77.906L128.69,87.9Z" style="fill:#fff;"/>
        <path d="M88.277,84.459C116.738,77.013 125.344,81.355 152.001,92.469L140.031,95.044L152.001,92.469L144.408,83.189" style="fill:none;stroke:#000;stroke-width:3px;"/>
    </g>
</svg>
