<?xml version="1.0" encoding="UTF-8" standalone="no"?>
<!DOCTYPE svg PUBLIC "-//W3C//DTD SVG 1.1//EN" "http://www.w3.org/Graphics/SVG/1.1/DTD/svg11.dtd">
<svg width="250px" height="250px" version="1.1" xmlns="http://www.w3.org/2000/svg" xmlns:xlink="http://www.w3.org/1999/xlink" xml:space="preserve" xmlns:serif="http://www.serif.com/" style="fill-rule:evenodd;clip-rule:evenodd;stroke-linecap:round;stroke-linejoin:round;stroke-miterlimit:1.5;">
    <g>
        <path d="M58.105,25.295C57.99,94.045 57.363,101.136 57.056,231.076L62.428,231.447L62.455,223.282L187.833,223.771L187.804,232.257L192.578,232.214L192.479,25.82" style="fill:#fff;stroke:#000;stroke-width:4px;"/>
        <path d="M46.53,17.743L46.505,25.169L205.113,25.87L205.139,18.111L46.53,17.743Z" style="fill:#fff;stroke:#000;stroke-width:4px;"/>
        <path d="M63.216,25.315L62.865,217.085L187.852,218.131L187.622,25.801L63.216,25.315Z" style="fill:#fff;stroke:#000;stroke-width:4px;"/>
    </g>
    <g>
        <path d="M210.286,145.046L209.882,159.422L205.231,163.509C202.465,172.771 202.45,182.066 202.935,191.368C203.948,183.763 204.758,172.39 207.582,169.507L206.393,211.788L208.911,211.867L211.687,184.869L212.94,211.992L215.458,212.07L216.167,168.928C218.358,178.295 220.323,181.718 225.954,179.388C221.227,175.907 219.31,171.392 217.844,163.055L213.911,159.547L213.573,153.612L218.682,151.197L210.286,145.046Z" style="fill:none;stroke:#000;stroke-width:3px;"/>
        <g>
            <path d="M225.179,55.798L218.111,50.257L206.759,50.257" style="fill:none;stroke:#000;stroke-width:3px;"/>
            <path d="M222.547,44.716L221.232,53.027L218.111,68.727L220.574,77.962L218.111,89.967" style="fill:none;stroke:#000;stroke-width:3px;"/>
            <path d="M212.022,81.656L218.111,68.727" style="fill:none;stroke:#000;stroke-width:3px;"/>
            <path d="M212.022,44.716L212.022,66.986L212.022,58.782L209.39,58.782L203.469,75.191" style="fill:none;stroke:#000;stroke-width:3px;"/>
        </g>
    </g>
    <path d="M38.837,140.477L39.277,154.894L43.234,159.005C45.634,168.3 45.71,177.623 45.364,186.95C44.457,179.32 43.695,167.913 41.289,165.014L42.583,207.419L40.456,207.49L37.927,180.409L37.054,207.605L34.927,207.677L34.032,164.41C32.246,173.798 30.61,177.225 25.837,174.874C29.806,171.396 31.394,166.873 32.575,158.516L35.874,155.009L36.119,149.058L31.787,146.622L38.837,140.477Z" style="fill:none;stroke:#000;stroke-width:3px;"/>
    <g>
        <path d="M41.386,41.747L42.243,50.319L39.485,54.957L34.389,55.52L31.412,51.515L31.3,43.944" style="fill:none;stroke:#000;stroke-width:3px;"/>
        <path d="M37.577,58.418L37.223,70.373L39.611,78.776L40.895,91.634" style="fill:none;stroke:#000;stroke-width:3px;"/>
        <path d="M37.223,70.373L31.272,75.906L29.109,92.937" style="fill:none;stroke:#000;stroke-width:3px;"/>
    </g>
    <path d="M56.635,25.315L15.329,25.315L14.861,117.5C21.887,118.41 25.827,122.708 25.837,128.823C25.846,135.026 24.008,139.764 14.743,140.781L14.296,228.73L57.056,218.131L56.635,25.315Z" style="fill:none;stroke:#000;stroke-width:4px;"/>
    <path d="M193.365,26.401L234.671,26.401L235.139,118.586C228.113,119.496 224.173,123.794 224.163,129.909C224.154,136.112 225.992,140.85 235.257,141.867L235.704,229.816L192.944,219.217L193.365,26.401Z" style="fill:none;stroke:#000;stroke-width:4px;"/>
    <path d="M62.865,212.07L83.484,184.206L86.582,25.315" style="fill:none;stroke:#000;stroke-width:3px;"/>
    <path d="M183.65,215.1L163.032,187.236L159.934,28.346" style="fill:none;stroke:#000;stroke-width:3px;"/>
    <g>
        <path d="M76.811,135.283L77.338,188.266C92.914,198.204 109.07,198.137 125.822,187.748L125.408,135.439C122.549,130.207 106.962,129.722 99.544,129.954C95.089,130.094 90.143,130.418 86.088,131.124C82.002,131.836 76.95,132.588 76.811,135.283Z" style="fill:#fff;stroke:#000;stroke-width:4px;"/>
        <path d="M76.812,135.338C76.915,140.239 93.22,141.909 102.438,141.952C109.628,141.985 124.855,140.602 125.429,137.504" style="fill:#fff;stroke:#000;stroke-width:4px;"/>
        <path d="M99.639,157.491L99.836,177.387C110.236,180.374 119.054,180.187 125.81,175.861L125.609,155.685C121.313,158.478 108.527,159.743 99.639,157.491Z" style="fill:#fff;stroke:#000;stroke-width:4px;"/>
    </g>
    <g>
        <path d="M179.859,122.927L181.389,137.8C177.468,169.86 171.075,188.325 163.586,200.759C150.778,201.126 138.368,196.308 126.224,188.029L125.358,179.973" style="fill:#fff;stroke:#000;stroke-width:4.5px;"/>
        <g>
            <path d="M125.636,180.751C137.02,188.492 148.158,194.056 158.813,195.316C169.06,183.686 175.772,159.578 178.686,122.072C169.696,113.729 157.314,108.599 141.753,106.482C138.612,113.41 134.849,136.916 129.675,164.998C128.592,170.875 126.775,174.288 125.636,180.751" style="fill:#fff;stroke:#000;stroke-width:4.5px;"/>
            <path d="M152.279,170.939L143.364,167.087L139.524,175.588L149.996,178.47L152.279,170.939Z" style="fill:none;stroke:#000;stroke-width:4.5px;"/>
            <path d="M164.845,138.735L155.302,145.048L158.5,155.311L153.219,146.726L146.435,152.19L155.302,145.048L147.622,136.85" style="fill:none;stroke:#000;stroke-width:4.5px;"/>
            <path d="M166.131,129.35C160.492,124.416 154.949,121.61 149.582,122.707L143.345,157.131L155.752,162.932C161.722,155.612 164.912,144.001 166.131,129.35Z" style="fill:none;stroke:#000;stroke-width:4.5px;"/>
        </g>
    </g>
</svg>
