<?xml version="1.0" encoding="UTF-8" standalone="no"?>
<!DOCTYPE svg PUBLIC "-//W3C//DTD SVG 1.1//EN" "http://www.w3.org/Graphics/SVG/1.1/DTD/svg11.dtd">
<svg width="250px" height="250px" version="1.1" xmlns="http://www.w3.org/2000/svg" xmlns:xlink="http://www.w3.org/1999/xlink" xml:space="preserve" xmlns:serif="http://www.serif.com/" style="fill-rule:evenodd;clip-rule:evenodd;stroke-linecap:round;stroke-linejoin:round;stroke-miterlimit:1.5;">
    <circle cx="185.5" cy="53.298" r="16.5" style="fill:#fff;stroke:#000;stroke-width:4px;"/>
    <path d="M103,46.917L158,53.679" style="fill:none;stroke:#000;stroke-width:4px;"/>
    <path d="M117.641,26.467L162.359,43.367" style="fill:none;stroke:#000;stroke-width:4px;"/>
    <path d="M147.64,14.732L170.36,32.34" style="fill:none;stroke:#000;stroke-width:4px;"/>
    <path d="M195.273,11.944L192.602,31.128" style="fill:none;stroke:#000;stroke-width:4px;"/>
    <path d="M182.582,61.713C189.55,54.906 197.549,55.893 200.088,62.32C206.645,60.263 212.591,60.897 213.362,66.919C222.666,70.537 223.126,74.724 217.518,79.03C215.903,80.27 214.543,81.465 211.811,82.727C213.588,92.041 204.242,92.964 196.713,90.288C191.22,88.335 190.942,86.355 189.139,82.325C180.984,91.591 174.221,93.012 169.41,83.434C167.246,84.645 165.784,88.193 164.04,88.468C159.729,89.149 156.879,86.29 157.588,82.53C155.629,80.628 153.144,81.127 152.205,79.545C150.216,76.192 152.013,71.461 158.262,70.695C159.011,68.731 157.396,67.449 158.287,65.957C163.62,57.032 175.368,54.858 182.582,61.713Z" style="fill:#fff;stroke:#000;stroke-width:4px;"/>
    <g>
        <g>
            <path d="M87.955,84.08C87.868,135.225 87.363,140.5 87.125,237.166L91.453,237.443L91.474,231.369L192.477,231.743L192.455,238.056L196.3,238.024L196.205,84.482" style="fill:#fff;stroke:#000;stroke-width:3.5px;"/>
            <path d="M79.878,78.465L79.859,83.99L204.121,84.511L204.141,78.739L79.878,78.465Z" style="fill:#fff;stroke:#000;stroke-width:4px;"/>
            <path d="M92.951,84.099L92.676,226.762L190.597,227.54L190.417,84.46L92.951,84.099Z" style="fill:#fff;stroke:#000;stroke-width:4px;"/>
        </g>
        <path d="M142,84.099L142,227.54" style="fill:none;stroke:#000;stroke-width:4px;"/>
        <circle cx="142" cy="161.463" r="9.618" style="fill:#fff;stroke:#000;stroke-width:4px;"/>
        <path d="M110.737,158.542L110.737,170.787L104.178,174.389C100.555,182.345 100.912,190.257 101.991,198.161C103.146,191.661 103.855,181.96 107.822,179.432L107.822,215.449L111.466,215.449L114.381,192.398L117.296,215.449L120.94,215.449L120.211,178.711C123.759,186.626 126.739,189.487 134.786,187.356C127.81,184.518 124.856,180.726 122.397,173.669L116.567,170.787L115.838,165.745L123.126,163.554L110.737,158.542Z" style="fill:none;stroke:#000;stroke-width:3px;"/>
        <path d="M172.894,160.299L172.894,172.02L178.61,175.468C181.767,183.082 181.456,190.655 180.516,198.221C179.509,192 178.891,182.714 175.435,180.294L175.435,214.769L172.259,214.769L169.719,192.705L167.178,214.769L164.003,214.769L164.638,179.605C161.546,187.18 158.949,189.919 151.936,187.878C158.016,185.163 160.59,181.533 162.733,174.778L167.813,172.02L168.449,167.194L162.098,165.097L172.894,160.299Z" style="fill:none;stroke:#000;stroke-width:3px;"/>
        <g>
            <path d="M105.271,98.544L105.271,104.956L109.279,108.162L115.691,108.162L118.897,104.956L118.096,99.346" style="fill:none;stroke:#000;stroke-width:3.5px;"/>
            <path d="M112.084,110.567L114.011,119.384L112.084,125.796L112.084,135.414" style="fill:none;stroke:#000;stroke-width:3.5px;"/>
            <path d="M114.011,119.384L122.103,122.99L126.912,135.414" style="fill:none;stroke:#000;stroke-width:3.5px;"/>
        </g>
        <g>
            <path d="M155.767,108.391L163.148,104.269L175.003,104.269" style="fill:none;stroke:#000;stroke-width:3.5px;"/>
            <path d="M158.515,100.147L159.889,106.33L163.148,118.01L160.576,124.88L163.148,133.811" style="fill:none;stroke:#000;stroke-width:3.5px;"/>
            <path d="M169.507,127.628L163.148,118.01" style="fill:none;stroke:#000;stroke-width:3.5px;"/>
            <path d="M169.507,100.147L169.507,116.715L169.507,110.611L172.255,110.611L178.438,122.819" style="fill:none;stroke:#000;stroke-width:3.5px;"/>
        </g>
    </g>
    <path d="M56.445,15.298C39.868,28.76 43.231,47.335 57.366,58.298C28.974,53.424 24.256,22.43 56.445,15.298Z" style="fill:none;stroke:#000;stroke-width:3.5px;"/>
    <path d="M177,11.944L180,23.625" style="fill:none;stroke:#000;stroke-width:4px;"/>
    <path d="M222,17.784L205,32.34" style="fill:none;stroke:#000;stroke-width:4px;"/>
    <path d="M107,69.798L147.64,64.798" style="fill:none;stroke:#000;stroke-width:4px;"/>
    <path d="M216,43.298L240,37.798" style="fill:none;stroke:#000;stroke-width:4px;"/>
    <path d="M216,56.556L240.542,58.54" style="fill:none;stroke:#000;stroke-width:4px;"/>
    <g>
        <path d="M39.21,184.567C39.38,166.203 38.893,157.221 41.391,139.317L51.902,139.463C52.894,179.037 51.864,185.584 51.174,226.155C51.128,228.885 41.067,229.923 39.192,226.934L39.192,202.342L39.21,184.567" style="fill:#fff;stroke:#000;stroke-width:3.5px;"/>
        <path d="M46.888,138.607L46.968,131.83L46.938,134.406C46.308,137.08 40.221,133.781 43.357,127.282C44.325,125.276 48.2,119.762 47.141,117.257C53.752,127.003 52.041,137.769 46.949,133.435" style="fill:#fff;stroke:#000;stroke-width:3.5px;"/>
    </g>
</svg>
