<?xml version="1.0" encoding="UTF-8" standalone="no"?>
<!DOCTYPE svg PUBLIC "-//W3C//DTD SVG 1.1//EN" "http://www.w3.org/Graphics/SVG/1.1/DTD/svg11.dtd">
<svg width="250px" height="250px" version="1.1" xmlns="http://www.w3.org/2000/svg" xmlns:xlink="http://www.w3.org/1999/xlink" xml:space="preserve" xmlns:serif="http://www.serif.com/" style="fill-rule:evenodd;clip-rule:evenodd;stroke-linecap:round;stroke-linejoin:round;stroke-miterlimit:1.5;">
    <g>
        <g>
            <path d="M52.637,17.464C52.513,87.797 51.839,95.051 51.508,227.984L57.287,228.363L57.317,220.01L192.203,220.511L192.172,229.193L197.308,229.148L197.201,18.001" style="fill:#fff;stroke:#000;stroke-width:4px;"/>
            <path d="M40.184,9.738L40.157,17.335L210.793,18.052L210.821,10.114L40.184,9.738Z" style="fill:#fff;stroke:#000;stroke-width:4px;"/>
            <path d="M58.136,17.485L57.758,213.671L192.223,214.741L191.976,17.982L58.136,17.485Z" style="fill:#fff;stroke:#000;stroke-width:4px;"/>
        </g>
        <g>
            <path d="M216.359,139.973L215.924,154.68L210.92,158.861C207.944,168.336 207.929,177.846 208.45,187.362C209.54,179.581 210.411,167.947 213.45,164.997L212.171,208.252L214.88,208.332L217.866,180.713L219.214,208.461L221.923,208.541L222.686,164.404C225.043,173.987 227.157,177.489 233.215,175.106C228.129,171.545 226.068,166.926 224.49,158.397L220.258,154.808L219.896,148.736L225.391,146.265L216.359,139.973Z" style="fill:none;stroke:#000;stroke-width:3px;"/>
            <g>
                <path d="M232.381,48.669L224.777,43.001L212.564,43.001" style="fill:none;stroke:#000;stroke-width:3px;"/>
                <path d="M229.55,37.332L228.134,45.835L224.777,61.896L227.427,71.344L224.777,83.625" style="fill:none;stroke:#000;stroke-width:3px;"/>
                <path d="M218.226,75.123L224.777,61.896" style="fill:none;stroke:#000;stroke-width:3px;"/>
                <path d="M218.226,37.332L218.226,60.115L218.226,51.722L215.395,51.722L209.025,68.509" style="fill:none;stroke:#000;stroke-width:3px;"/>
            </g>
        </g>
        <path d="M31.907,135.298L32.381,150.048L36.638,154.254C39.22,163.763 39.302,173.3 38.93,182.841C37.954,175.036 37.133,163.366 34.545,160.401L35.938,203.782L33.65,203.855L30.928,176.15L29.989,203.973L27.701,204.046L26.738,159.783C24.816,169.387 23.056,172.893 17.921,170.488C22.192,166.93 23.9,162.303 25.171,153.753L28.72,150.165L28.983,144.077L24.322,141.585L31.907,135.298Z" style="fill:none;stroke:#000;stroke-width:3px;"/>
        <g>
            <path d="M34.65,34.294L35.571,43.064L32.605,47.809L27.122,48.385L23.919,44.288L23.799,36.543" style="fill:none;stroke:#000;stroke-width:3px;"/>
            <path d="M30.552,51.349L30.171,63.58L32.74,72.177L34.122,85.331" style="fill:none;stroke:#000;stroke-width:3px;"/>
            <path d="M30.171,63.58L23.769,69.24L21.442,86.663" style="fill:none;stroke:#000;stroke-width:3px;"/>
        </g>
        <path d="M51.055,17.485L6.616,17.485L6.113,111.793C13.672,112.723 17.911,117.12 17.921,123.376C17.932,129.722 15.954,134.569 5.986,135.61L5.505,225.584L51.508,214.741L51.055,17.485Z" style="fill:none;stroke:#000;stroke-width:4px;"/>
        <path d="M198.155,18.596L242.593,18.596L243.097,112.904C235.538,113.834 231.299,118.231 231.289,124.487C231.278,130.833 233.256,135.68 243.224,136.721L243.704,226.695L197.702,215.852L198.155,18.596Z" style="fill:none;stroke:#000;stroke-width:4px;"/>
        <path d="M57.758,208.541L72.115,180.035L74.273,17.485" style="fill:none;stroke:#000;stroke-width:3px;"/>
        <path d="M187.703,211.641L175.954,183.135L174.188,20.585" style="fill:none;stroke:#000;stroke-width:3px;"/>
    </g>
    <path d="M79.984,178.37L163.016,179.183" style="fill:none;stroke:#000;stroke-width:2.5px;"/>
    <g>
        <path d="M135,169.37L135,182.259C129.814,188.861 113.389,190.234 108,182.259L108,169.37L135,169.37Z" style="fill:#fff;stroke:#000;stroke-width:2.5px;"/>
        <ellipse cx="121.5" cy="169.37" rx="13.5" ry="4.297" style="fill:#fff;stroke:#000;stroke-width:2.5px;"/>
        <ellipse cx="121.5" cy="170.325" rx="11.758" ry="2.387" style="fill:#fff;stroke:#000;stroke-width:2.5px;"/>
        <path d="M121.455,169.37L121.455,158.867L121.455,162.686C118.546,162.715 117.479,161.088 117.312,158.867C116.973,154.354 118.556,154.543 119.684,152.851C121.728,149.784 120.755,148.517 121.5,145.5C122.073,153.649 123.891,152.145 125.234,156.861C125.625,158.233 124.274,162.645 121.455,162.686" style="fill:#fff;stroke:#000;stroke-width:2.5px;"/>
    </g>
    <path d="M67,47L67,75C105.148,93.219 143.471,94.558 182,76L183,47C144.615,63.485 105.28,65.943 67,47Z" style="fill:#fff;stroke:#000;stroke-width:2.5px;"/>
    <g>
        <g>
            <path d="M101.509,64.71L101.555,79.707L101.529,71.327C107.59,70.083 108.724,68.059 101.509,64.71Z" style="fill:none;stroke:#000;stroke-width:2.5px;"/>
            <path d="M79.721,59.106L79.721,74.315" style="fill:none;stroke:#000;stroke-width:2.5px;"/>
            <path d="M112.918,66.994L112.949,82.288L112.931,73.742C118.91,72.48 120.031,70.417 112.918,66.994Z" style="fill:none;stroke:#000;stroke-width:2.5px;"/>
            <path d="M126.958,68.153C128.061,68.188 128.856,71.352 128.732,75.214C128.607,79.075 127.611,82.181 126.507,82.146C125.404,82.11 124.609,78.946 124.734,75.085C124.858,71.223 125.855,68.117 126.958,68.153Z" style="fill:#fff;stroke:#000;stroke-width:2.5px;"/>
            <path d="M142.817,80.398L142.952,66.398L139.892,72.61L135.941,67.483L135.807,81.33" style="fill:none;stroke:#000;stroke-width:2.5px;"/>
            <path d="M151.017,64.787L150.805,79.557" style="fill:none;stroke:#000;stroke-width:2.5px;"/>
            <g>
                <path d="M162.079,63.417C156.974,63.372 155.131,68.926 160.295,68.862" style="fill:none;stroke:#000;stroke-width:2.5px;"/>
                <path d="M157.727,78.088C163.903,78.088 166.196,68.661 159.948,68.868" style="fill:none;stroke:#000;stroke-width:2.5px;"/>
            </g>
            <g>
                <path d="M174.279,58.935L168.906,60.097L168.719,73.861L174.09,72.863" style="fill:none;stroke:#000;stroke-width:2.5px;"/>
                <path d="M168.843,66.213L171.487,65.784" style="fill:none;stroke:#000;stroke-width:2.5px;"/>
            </g>
        </g>
        <path d="M117.843,82.773L113.364,74.641" style="fill:none;stroke:#000;stroke-width:2.5px;"/>
    </g>
    <path d="M88.186,74.642L89.18,74.752C89.456,76.066 89.086,77.213 86.821,77.87" style="fill:none;stroke:#000;stroke-width:2.5px;"/>
    <path d="M79.721,107C78.688,110.731 79.786,113.586 86.821,114L89.259,106L96,114C100.556,115.087 103.392,113.061 104,107L109,111L118,103L119,114" style="fill:none;stroke:#000;stroke-width:2.5px;"/>
    <path d="M164.27,107C164.99,111.908 163.592,114.386 159.7,114L158.131,106L153.793,114C152.647,98.368 150.872,97.414 148.644,107C147.053,126.94 146.203,120.283 145.426,111L139.634,103C141.75,106.575 142.074,110.221 138.99,114" style="fill:none;stroke:#000;stroke-width:2.5px;"/>
    <ellipse cx="128.995" cy="108.5" rx="4.005" ry="5.5" style="fill:#fff;stroke:#000;stroke-width:2.5px;"/>
</svg>
