<?xml version="1.0" encoding="UTF-8" standalone="no"?>
<!DOCTYPE svg PUBLIC "-//W3C//DTD SVG 1.1//EN" "http://www.w3.org/Graphics/SVG/1.1/DTD/svg11.dtd">
<svg width="250px" height="250px" version="1.1" xmlns="http://www.w3.org/2000/svg" xmlns:xlink="http://www.w3.org/1999/xlink" xml:space="preserve" xmlns:serif="http://www.serif.com/" style="fill-rule:evenodd;clip-rule:evenodd;stroke-linecap:round;stroke-linejoin:round;stroke-miterlimit:1.5;">
    <g>
        <g>
            <path d="M52.637,17.464C52.513,87.797 51.839,95.051 51.508,227.984L57.287,228.363L57.317,220.01L192.203,220.511L192.172,229.193L197.308,229.148L197.201,18.001" style="fill:#fff;stroke:#000;stroke-width:4px;"/>
            <path d="M40.184,9.738L40.157,17.335L210.793,18.052L210.821,10.114L40.184,9.738Z" style="fill:#fff;stroke:#000;stroke-width:4px;"/>
            <path d="M58.136,17.485L57.758,213.671L192.223,214.741L191.976,17.982L58.136,17.485Z" style="fill:#fff;stroke:#000;stroke-width:4px;"/>
        </g>
        <g>
            <path d="M216.359,139.973L215.924,154.68L210.92,158.861C207.944,168.336 207.929,177.846 208.45,187.362C209.54,179.581 210.411,167.947 213.45,164.997L212.171,208.252L214.88,208.332L217.866,180.713L219.214,208.461L221.923,208.541L222.686,164.404C225.043,173.987 227.157,177.489 233.215,175.106C228.129,171.545 226.068,166.926 224.49,158.397L220.258,154.808L219.896,148.736L225.391,146.265L216.359,139.973Z" style="fill:none;stroke:#000;stroke-width:3px;"/>
            <g>
                <path d="M232.381,48.669L224.777,43.001L212.564,43.001" style="fill:none;stroke:#000;stroke-width:3px;"/>
                <path d="M229.55,37.332L228.134,45.835L224.777,61.896L227.427,71.344L224.777,83.625" style="fill:none;stroke:#000;stroke-width:3px;"/>
                <path d="M218.226,75.123L224.777,61.896" style="fill:none;stroke:#000;stroke-width:3px;"/>
                <path d="M218.226,37.332L218.226,60.115L218.226,51.722L215.395,51.722L209.025,68.509" style="fill:none;stroke:#000;stroke-width:3px;"/>
            </g>
        </g>
        <path d="M31.907,135.298L32.381,150.048L36.638,154.254C39.22,163.763 39.302,173.3 38.93,182.841C37.954,175.036 37.133,163.366 34.545,160.401L35.938,203.782L33.65,203.855L30.928,176.15L29.989,203.973L27.701,204.046L26.738,159.783C24.816,169.387 23.056,172.893 17.921,170.488C22.192,166.93 23.9,162.303 25.171,153.753L28.72,150.165L28.983,144.077L24.322,141.585L31.907,135.298Z" style="fill:none;stroke:#000;stroke-width:3px;"/>
        <g>
            <path d="M34.65,34.294L35.571,43.064L32.605,47.809L27.122,48.385L23.919,44.288L23.799,36.543" style="fill:none;stroke:#000;stroke-width:3px;"/>
            <path d="M30.552,51.349L30.171,63.58L32.74,72.177L34.122,85.331" style="fill:none;stroke:#000;stroke-width:3px;"/>
            <path d="M30.171,63.58L23.769,69.24L21.442,86.663" style="fill:none;stroke:#000;stroke-width:3px;"/>
        </g>
        <path d="M51.055,17.485L6.616,17.485L6.113,111.793C13.672,112.723 17.911,117.12 17.921,123.376C17.932,129.722 15.954,134.569 5.986,135.61L5.505,225.584L51.508,214.741L51.055,17.485Z" style="fill:none;stroke:#000;stroke-width:4px;"/>
        <path d="M198.155,18.596L242.593,18.596L243.097,112.904C235.538,113.834 231.299,118.231 231.289,124.487C231.278,130.833 233.256,135.68 243.224,136.721L243.704,226.695L197.702,215.852L198.155,18.596Z" style="fill:none;stroke:#000;stroke-width:4px;"/>
        <path d="M57.758,208.541L72.115,180.035L74.273,17.485" style="fill:none;stroke:#000;stroke-width:3px;"/>
        <path d="M187.703,211.641L175.954,183.135L174.188,20.585" style="fill:none;stroke:#000;stroke-width:3px;"/>
    </g>
    <g>
        <g>
            <path d="M67.907,54.092L167.854,51.939L169.183,113.656L69.236,115.809L67.907,54.092Z" style="fill:#fff;stroke:#000;stroke-width:3px;stroke-miterlimit:10;"/>
            <path d="M67.907,54.092L167.854,51.939L169.183,113.656L69.236,115.809L67.907,54.092Z" style="fill:#fff;stroke:#000;stroke-width:3px;stroke-miterlimit:10;"/>
            <path d="M167.858,51.939C145.289,65.017 143.905,75.259 128.782,82.685C111.682,91.082 91.804,95.739 68.814,96.208L69.001,104.901C84.663,109.797 105.764,108.392 126.84,107.018L158.089,106.344L165.62,99.11L163.702,106.223L169.025,106.109L167.858,51.939Z" style="fill:#fff;stroke:#000;stroke-width:3px;stroke-miterlimit:10;"/>
            <path d="M159.292,55.182C163.98,55.062 166.704,59.049 168.695,62.263L169.025,77.602C168.556,73.421 167.992,69.284 166.958,65.371C167.388,68.36 167.419,71.356 167.152,74.358C166.436,70.573 165.532,67.062 164.187,64.188L165.142,70.325C163.915,69.111 162.989,67.492 162.361,65.47C162.237,67.131 162.534,68.761 163.157,70.367L160.439,67.444L160.474,69.072C159.815,67.993 159.058,67.459 158.197,67.493L156.384,70.513L156.32,67.533L153.94,70.566L153.91,69.213L150.746,71.815L155.015,65.629C153.205,66.872 151.88,68.719 150.082,70.649C150.106,69.553 150.58,68.541 151.625,67.634C150.381,68.039 149.199,68.067 148.078,67.711L150.615,65.723L148.037,65.779C149.489,64.922 151.159,64.528 152.968,64.43L149.928,63.491C151.208,63.121 152.496,63.237 153.785,63.408L151.178,62.092C153.183,61.948 155.194,62.164 157.207,62.51L154.313,61.196L159.419,61.086L156.146,59.498C157.762,59.323 159.379,59.534 160.999,60.17L159.341,57.474C160.942,57.722 162.556,59.477 164.118,60.984C163.876,59.371 160.299,56.477 159.292,55.182Z" style="fill:#fff;stroke:#000;stroke-width:1.5px;stroke-miterlimit:10;"/>
            <g>
                <g>
                    <path d="M108.445,53.406L104.171,54.195C106.793,58.927 111.117,65.66 113.142,70.757L114.572,66.71C112.567,62.19 110.53,57.743 108.445,53.406Z" style="fill:#fff;stroke:#000;stroke-width:2.5px;stroke-miterlimit:10;"/>
                    <path d="M77.156,54.195L69.965,54.35C72.09,56.137 79.771,62.231 85.137,66.481C94.154,73.623 97.85,80.897 99.296,84.825L104.171,81.117C100.792,77.836 94.881,66.381 86.065,60.138C83.405,58.255 78.426,55.329 77.156,54.195Z" style="fill:#fff;stroke:#000;stroke-width:2.5px;stroke-miterlimit:10;"/>
                </g>
            </g>
            <path d="M69.093,106.471L168.987,104.319L169.188,113.664L69.294,115.816L69.093,106.471Z" style="fill:#fff;stroke:#000;stroke-width:2px;stroke-miterlimit:10;"/>
            <g>
                <g>
                    <path d="M70.088,116.113C69.783,114.52 70.006,112.376 71.192,111.04C72.546,109.516 73.209,107.937 74.019,106.479C74.836,105.01 75.798,103.662 76.596,102.148C77.416,101.332 78.77,100.575 79.553,99.82C80.457,98.947 80.784,98.086 81.648,97.281C84.428,94.691 87.34,91.313 89.901,89.087C91.139,86.766 92.613,84.657 94.18,82.631C94.716,79.655 97.715,78.341 100.746,78.541C103.257,78.706 106.505,77.997 107.514,78.85L108.659,79.818C103.584,79.407 103.163,79.339 108.659,79.818C111.583,80.79 114.904,83.31 117.79,87.075C120.812,88.58 122.546,89.954 123.012,91.199C114.358,83.324 96.823,97.039 97.89,115.514L70.088,116.113Z" style="fill:#fff;stroke:#000;stroke-width:2px;stroke-miterlimit:10;"/>
                    <path d="M126.377,100.152C127.009,99.453 127.923,98.879 128.625,98.782C132.464,100.259 138.226,103.307 140.243,100.721C141.19,99.506 140.031,97.674 142.496,96.756C143.526,96.129 143.752,95.411 142.448,94.524L142.787,93.653C144.083,93.732 144.757,93.09 144.75,92.265C144.051,91.225 143.821,90.216 144.686,89.28C146.981,88.859 148.022,88.042 147.812,86.528C147.661,85.435 145.629,83.852 144.504,80.842C145.021,80.555 145.386,80.386 145.696,79.971C145.997,79.57 146.247,78.922 146.448,78.701C146.981,78.114 146.564,77.267 146.396,76.333C146.208,75.281 145.474,74.462 145.787,72.981C145.406,70.764 144.773,68.633 143.247,66.807C143.889,65.327 142.707,64.987 141.776,63.299C140.893,61.699 138.929,60.144 136.669,58.864C133.898,57.295 128.652,56.082 125.44,56.68C119.118,57.857 114.532,63.303 111.768,70.933C111.201,72.497 112.409,74.243 110.299,75.883C109.213,75.79 108.566,75.999 108.471,76.591C108.41,76.969 109.848,76.987 108.995,78.214C106.917,77.388 106.475,78.1 108.538,79.731L107.255,84.372L126.377,100.152" style="fill:#fff;stroke:#000;stroke-width:2.5px;stroke-miterlimit:10;"/>
                    <path d="M142.393,94.479L138.881,93.056C140.626,92.941 142.433,92.852 142.873,93.575" style="fill:#fff;stroke:#000;stroke-width:1.5px;stroke-miterlimit:10;"/>
                    <path d="M144.346,75.761L144.366,76.654L144.007,77.323C143.882,76.868 143.663,76.523 143.242,76.414C143.293,73.865 140.682,74.471 136.827,76.553C139.921,73.9 142.566,73.075 144.346,75.761Z" style="fill:#fff;stroke:#000;stroke-width:1.5px;stroke-miterlimit:10;"/>
                    <path d="M141.542,77.334L142.146,78.246L140.7,78.277L137.677,78.894L138.164,78.794C139.02,79.458 139.971,79.969 141.086,80.214C141.35,79.569 141.416,78.918 141.352,78.263L142.146,78.246L141.542,77.334Z" style="fill:#fff;stroke:#000;stroke-width:1.5px;stroke-miterlimit:10;"/>
                    <path d="M142.089,81.798C141.494,82.768 140.021,82.371 138.414,81.398" style="fill:#fff;stroke:#000;stroke-width:1.5px;stroke-miterlimit:10;"/>
                    <path d="M145.373,88.754C145.783,87.845 144.852,87.877 142.994,88.561C142.525,88.544 142.298,88.701 142.355,89.066C141.144,88.469 140.821,87.554 142.079,86.075" style="fill:#fff;stroke:#000;stroke-width:1.5px;stroke-miterlimit:10;"/>
                    <path d="M122.817,80.161C122.816,81.074 122.292,80.825 121.144,79.187C121.413,78.061 121.174,77.34 120.098,77.288C119.765,76.38 119.59,75.524 120.046,74.881C120.479,75.348 120.985,75.569 121.562,75.554" style="fill:#fff;stroke:#000;stroke-width:1.5px;stroke-miterlimit:10;"/>
                    <path d="M88.292,103.121C85.063,105.212 84.745,108.514 85.592,112.3C88.655,109.566 89.954,106.567 88.292,103.121Z" style="fill:#fff;stroke:#000;stroke-width:2px;stroke-miterlimit:10;"/>
                    <path d="M82.779,103.236C80.146,106.041 80.628,109.322 82.358,112.795C84.677,109.407 85.219,106.183 82.779,103.236Z" style="fill:#fff;stroke:#000;stroke-width:2px;stroke-miterlimit:10;"/>
                    <path d="M76.459,108.77C75.634,111.53 78.275,115.668 78.275,115.668L81.073,115.607C81.073,115.607 80.941,110.109 76.459,108.77Z" style="fill:#fff;stroke:#000;stroke-width:2.5px;stroke-miterlimit:10;"/>
                    <path d="M93.541,111.877C94.085,114.018 92.062,115.557 92.062,115.557L90.565,115.597C90.565,115.597 90.411,112.672 93.541,111.877Z" style="fill:#fff;stroke:#000;stroke-width:1.5px;stroke-miterlimit:10;"/>
                    <path d="M127.151,114.883L97.957,115.512C98.292,99.828 108.904,88.136 120.589,90.041C126.25,90.964 126.881,102.541 127.151,114.883Z" style="fill:#fff;stroke:#000;stroke-width:3px;stroke-miterlimit:10;"/>
                    <path d="M101.25,88.842C100.622,88.158 103.238,86.639 102.7,86.351C102.34,86.158 101.297,86.272 101.179,85.536C101.059,84.79 103.991,83.95 103.304,83.678C101.637,83.019 101.519,82.172 102.084,81.886C103.926,80.953 105.636,83.87 106.61,83.023C105.512,81.096 104.469,80.554 104.951,80.112C105.775,79.357 108.659,79.818 108.659,79.818C103.584,79.407 103.163,79.339 108.659,79.818C111.583,80.79 114.904,83.31 117.79,87.075C120.812,88.58 122.546,89.954 123.012,91.199C119.088,87.628 113.336,88.497 108.322,92.236C107.817,92.613 110.106,88.228 109.619,88.662C108.112,90 103.795,93.92 102.84,92.826C101.861,91.705 105.061,88.429 105.261,87.915C104.058,88.401 101.717,89.35 101.25,88.842Z" style="fill:#fff;stroke:#000;stroke-width:1.5px;stroke-miterlimit:10;"/>
                    <path d="M113.542,84.074C114.005,84.754 115.827,88.162 114.572,88.145C114.484,87.594 110.766,85.989 109.891,86.25C110.533,85.322 109.531,81.685 113.542,84.074Z" style="fill:#fff;stroke:#000;stroke-width:1.5px;stroke-miterlimit:10;"/>
                    <path d="M93.019,88.993C94.501,89.737 95.386,91.592 95.6,94.698C95.495,95.613 95.199,96.867 94.474,97.131L94.435,95.326C93.967,96.593 93.324,97.679 92.354,98.429L92.385,99.839L91.291,99.249L89.968,98.48C89.016,99.361 87.663,99.268 86.176,100.504C85.295,96.654 86.513,93.942 89.837,92.371C89.662,89.858 91.148,89.21 93.019,88.993Z" style="fill:#fff;stroke:#000;stroke-width:1.5px;stroke-miterlimit:10;"/>
                    <path d="M98.986,88.152L97.43,88.186L96.76,88.978C99.307,89.074 97.978,91.577 96.867,93.945C97.57,95.124 98.486,94.997 99.562,93.887C100.504,91.945 100.96,90.016 98.986,88.152Z" style="fill:#fff;stroke:#000;stroke-width:1.5px;stroke-miterlimit:10;"/>
                    <path d="M98.868,96.56C98.15,97.436 97.415,98.312 98.05,99.122C98.13,102.143 97.087,104.881 95.393,107.455C94.72,109.774 93.031,111.44 90.446,112.527C89.519,110.761 89.149,109.12 89.255,107.587C89.139,105.332 91.684,102.412 92.458,100.946C96.124,97.579 97.841,96.098 98.868,96.56Z" style="fill:#fff;stroke:#000;stroke-width:2px;stroke-miterlimit:10;"/>
                    <path d="M123.85,73.755C122.862,69.398 116.173,69.469 116.008,76.106C115.977,77.38 116.652,78.414 116.87,79.428C117.228,81.093 117.348,82.524 118.415,83.138C121.489,85.402 122.369,85.078 122.582,83.967C122.29,83.667 122.331,83.36 122.563,83.049C121.211,83.31 119.925,83.16 119.897,81.71C119.157,81.736 118.648,81.838 118.05,80.784C117.778,80.306 117.826,78.12 116.958,77.877C115.511,76.268 116.307,73.03 117.181,72.305C121.912,68.375 123.346,73.48 123.85,73.755Z" style="fill:#fff;stroke:#000;stroke-width:1.5px;stroke-miterlimit:10;"/>
                </g>
            </g>
        </g>
    </g>
    <path d="M69.965,54.35L118.547,34L166,51.939" style="fill:none;stroke:#000;stroke-width:1.5px;"/>
    <path d="M80,177.554L163,180" style="fill:none;stroke:#000;stroke-width:2.5px;"/>
    <g>
        <path d="M152,168.37L152,181.259C146.814,187.861 130.389,189.234 125,181.259L125,168.37L152,168.37Z" style="fill:#fff;stroke:#000;stroke-width:2.5px;"/>
        <ellipse cx="138.5" cy="168.37" rx="13.5" ry="4.297" style="fill:#fff;stroke:#000;stroke-width:2.5px;"/>
        <ellipse cx="138.5" cy="169.325" rx="11.758" ry="2.387" style="fill:#fff;stroke:#000;stroke-width:2.5px;"/>
        <path d="M138.455,168.37L138.455,157.867L138.455,161.686C135.546,161.715 134.479,160.088 134.312,157.867C133.973,153.354 135.556,153.543 136.684,151.851C138.728,148.784 137.755,147.517 138.5,144.5C139.073,152.649 140.891,151.145 142.234,155.861C142.625,157.233 141.274,161.645 138.455,161.686" style="fill:#fff;stroke:#000;stroke-width:2.5px;"/>
    </g>
    <g>
        <path d="M88,167.37L88,180.259C93.378,186.861 110.411,188.234 116,180.259L116,167.37L88,167.37Z" style="fill:#fff;stroke:#000;stroke-width:2.5px;"/>
        <ellipse cx="102" cy="167.37" rx="14" ry="4.297" style="fill:#fff;stroke:#000;stroke-width:2.5px;"/>
        <ellipse cx="102" cy="168.325" rx="12.194" ry="2.387" style="fill:#fff;stroke:#000;stroke-width:2.5px;"/>
        <path d="M102.169,167.37L102.169,156.867L102.169,160.686C99.315,160.715 98.268,159.088 98.104,156.867C97.772,152.354 99.325,152.543 100.431,150.851C102.436,147.784 101.655,146.363 100.362,143.5C107.213,148.808 104.559,150.145 105.876,154.861C106.26,156.233 104.934,160.645 102.169,160.686" style="fill:#fff;stroke:#000;stroke-width:2.5px;"/>
    </g>
    <ellipse cx="117.982" cy="35" rx="3.311" ry="3" style="fill:#fff;stroke:#000;stroke-width:2.5px;"/>
</svg>
