<?xml version="1.0" encoding="UTF-8" standalone="no"?>
<!DOCTYPE svg PUBLIC "-//W3C//DTD SVG 1.1//EN" "http://www.w3.org/Graphics/SVG/1.1/DTD/svg11.dtd">
<svg width="750px" height="375px" version="1.1" xmlns="http://www.w3.org/2000/svg" xmlns:xlink="http://www.w3.org/1999/xlink" xml:space="preserve" xmlns:serif="http://www.serif.com/" style="fill-rule:evenodd;clip-rule:evenodd;stroke-linecap:round;stroke-linejoin:round;stroke-miterlimit:1.5;">
    <g>
        <g>
            <path d="M166.632,68.915C176.982,81.155 170.757,98.505 161.786,85.621C155.379,70.899 154.004,61.735 167.011,68.456" style="fill:none;stroke:#000;stroke-width:3px;"/>
            <g>
                <path d="M154.395,56.633C152.094,54.716 149.398,55.259 149.837,57.436C150.419,60.328 154.107,66.24 152.724,69.232C145.965,83.855 162.702,95.059 164.028,82.098C164.188,80.527 162.965,73.9 161.589,72.186C161.194,71.694 160.062,71.403 160.155,70.606C160.225,70.014 160.989,69.734 161.906,69.813C186.972,74.004 203.121,70.766 214.566,63.607C215.852,63.137 216.739,62.603 216.9,61.953C218.131,61.567 219.111,61.148 218.62,60.535C219.533,59.998 220.23,59.491 219.634,59.158C220.552,58.783 220.978,58.385 220.606,57.95C225.31,52.258 224.435,47.034 220.445,44.853C219.983,44.601 219.196,44.605 218.468,45.332C217.306,46.492 215.821,48.898 213.423,49.94C213.063,49.404 212.581,50.098 212.011,51.692C211.771,51.279 211.365,51.532 210.88,52.102C210.377,51.976 209.921,52.731 209.48,53.788C208.78,53.997 208.273,54.334 208.091,54.888C193.539,61.244 179.427,61.162 166.38,60.627C165.694,60.599 165.061,60.77 164.403,60.691C163.358,60.565 162.639,60.105 161.664,59.839C159.151,59.154 156.378,58.286 154.395,56.633Z" style="fill:#fff;stroke:#0d0b0b;stroke-width:3px;"/>
                <path d="M209.44,53.977L209.527,54.934" style="fill:none;stroke:#0d0b0b;stroke-width:3px;"/>
                <path d="M207.655,55.291C207.467,60.761 210.277,62.754 214.016,63.669" style="fill:#fff;stroke:#0d0b0b;stroke-width:3px;"/>
                <path d="M210.831,57.153C212.347,60.748 214.006,60.625 217.389,61.808" style="fill:#fff;stroke:#0d0b0b;stroke-width:3px;"/>
                <path d="M211.509,51.994C211.43,53.289 211.848,54.398 212.236,55.477C213.141,57.994 216.012,59.489 218.866,59.48" style="fill:#fff;stroke:#0d0b0b;stroke-width:3px;"/>
                <path d="M213.901,49.823C213.47,52.333 213.921,54.253 215.074,55.468C216.438,56.906 219.17,56.975 221.038,57.929" style="fill:#fff;stroke:#0d0b0b;stroke-width:3px;"/>
                <path d="M206.758,57.122C205.783,57.91 205.056,58.878 204.597,59.975C203.813,61.85 203.995,64.42 203.07,66.483" style="fill:#fff;stroke:#0d0b0b;stroke-width:3px;"/>
                <path d="M202.915,59.655C201.556,61.426 200.041,62.358 198.457,62.918" style="fill:#fff;stroke:#0d0b0b;stroke-width:3px;"/>
                <path d="M174.613,64.13C175.838,66.2 182.255,64.754 189.251,62.851C191.47,62.247 193.427,62.951 195.055,63.768" style="fill:#fff;stroke:#0d0b0b;stroke-width:3px;"/>
                <path d="M184.574,68.746C184.689,67.642 189.528,66.097 196.81,66.425C199.258,66.536 201.781,63.096 203.013,60.099C204.236,57.12 207.041,55.609 206.969,55.746" style="fill:#fff;stroke:#0d0b0b;stroke-width:3px;"/>
                <path d="M181.365,67.117C178.55,67.894 176.946,68.656 177.538,69.393" style="fill:#fff;stroke:#0d0b0b;stroke-width:3px;"/>
                <path d="M165.699,66.035C164.407,67.242 162.72,66.53 161.212,66.465C159.603,66.395 158.622,68.079 158.926,69.957" style="fill:#fff;stroke:#0d0b0b;stroke-width:3px;"/>
            </g>
        </g>
        <ellipse cx="186.714" cy="65.831" rx="55.041" ry="54.701" style="fill:none;stroke:#000;stroke-width:3px;"/>
    </g>
    <g>
        <g>
            <path d="M166.403,249.277C169.325,250.557 171.611,254.642 167.292,258.154L163.737,261.656C170.178,261.664 174.5,266.106 171.715,270.181C170.687,271.685 165.487,270.665 163.143,272.749C168.949,273.189 172.891,276.485 170.82,279.915C169.808,281.589 165.163,281.904 162.873,284.587" style="fill:none;stroke:#000;stroke-width:3px;"/>
            <path d="M75.743,322.29L97.063,291.932L99.141,284.443C102.326,275.72 107.036,267.761 113.253,260.559L133.183,248.961C138.985,246.065 144.865,243.459 151.234,242.671C152.544,246.025 152.167,249.055 149.233,251.593L138.217,257.561L132.088,264.952C130.494,275.42 124.776,284.566 117.763,293.296" style="fill:none;stroke:#000;stroke-width:3px;"/>
            <path d="M152.805,243.317L180.262,230.976C182.042,230.459 185.565,230.11 186.48,230.884C187.366,231.633 192.486,234.234 183.565,239.405C179.391,242.69 172.607,245.39 166.329,249.099C156.642,250.286 149.397,254.62 142.33,259.182C139.527,262.046 140.439,265.525 145.176,266.328C150.489,267.597 161.35,261.744 166.554,258.746L154.21,266.377L141.893,272.995C137.125,275.748 141.09,282.725 146.545,280.67L162.84,272.757C157.011,276.667 150.045,280.24 145.606,285.443C147.785,291.435 153.387,293.003 163.34,283.967C153.801,294.104 142.23,303.192 129.282,311.57C115.193,316.661 108.576,329.742 102.302,343.187" style="fill:none;stroke:#000;stroke-width:3px;"/>
        </g>
        <g>
            <g>
                <path d="M171.024,306.194L206.463,306.086L202.033,314.739C207.254,323.165 206.551,330.548 202.033,338.703L202.033,342.093C193.371,343.717 184.705,343.378 176.036,342.093L176.036,338.53C171.128,331.006 168.336,322.638 175.864,315.115L171.024,306.194Z" style="fill:none;stroke:#000;stroke-width:3px;"/>
                <path d="M179.061,314.608C185.534,316.19 192.036,317.166 198.466,314.85" style="fill:none;stroke:#000;stroke-width:3px;"/>
            </g>
            <path d="M188.75,247.043C189.175,250.817 189.934,252.759 190.798,254.949C193.313,261.324 192.251,264.224 188.694,264.185C184.713,264.142 184.568,259.728 186.594,255.008C187.923,251.911 188.258,250.499 188.75,247.043Z" style="fill:none;stroke:#000;stroke-width:3px;"/>
            <path d="M191.819,273.242C192.244,277.016 193.002,278.958 193.867,281.148C196.382,287.523 195.32,290.423 191.763,290.384C187.782,290.341 187.637,285.927 189.663,281.207C190.992,278.11 191.327,276.698 191.819,273.242Z" style="fill:none;stroke:#000;stroke-width:3px;"/>
        </g>
        <g>
            <path d="M148.734,193.088L241.725,236.241C242.05,243.188 239.707,246.499 235.332,247.043L203.962,232.485L199.346,242.432C175.969,231.758 158.875,215.508 148.734,193.088Z" style="fill:#fff;stroke:#000;stroke-width:3px;"/>
            <path d="M204.237,231.774L207.148,225.011" style="fill:none;stroke:#000;stroke-width:3px;"/>
        </g>
    </g>
    <g>
        <g>
            <path d="M312.547,32.538C312.44,93.058 311.86,99.3 311.575,213.686L316.548,214.013L316.574,206.825L432.641,207.256L432.614,214.726L437.033,214.688L436.942,33" style="fill:#fff;stroke:#000;stroke-width:3px;"/>
            <path d="M301.831,25.889L301.808,32.427L448.638,33.043L448.662,26.213L301.831,25.889Z" style="fill:#fff;stroke:#000;stroke-width:3px;"/>
            <path d="M317.278,32.555L316.953,201.37L432.658,202.291L432.445,32.983L317.278,32.555Z" style="fill:#fff;stroke:#000;stroke-width:3px;"/>
        </g>
        <g>
            <path d="M453.427,137.955L453.052,150.609L448.747,154.207C446.186,162.36 446.173,170.543 446.622,178.732C447.559,172.037 448.309,162.025 450.924,159.487L449.823,196.708L452.154,196.777L454.723,173.011L455.884,196.887L458.215,196.956L458.871,158.977C460.899,167.223 462.718,170.236 467.931,168.186C463.555,165.122 461.781,161.147 460.424,153.808L456.782,150.72L456.47,145.495L461.199,143.369L453.427,137.955Z" style="fill:none;stroke:#000;stroke-width:3px;"/>
            <g>
                <path d="M467.213,59.389L460.67,54.511L450.161,54.511" style="fill:none;stroke:#000;stroke-width:3px;"/>
                <path d="M464.777,49.634L463.559,56.95L460.67,70.77L462.95,78.9L460.67,89.468" style="fill:none;stroke:#000;stroke-width:3px;"/>
                <path d="M455.033,82.152L460.67,70.77" style="fill:none;stroke:#000;stroke-width:3px;"/>
                <path d="M455.033,49.634L455.033,69.238L455.033,62.016L452.597,62.016L447.116,76.461" style="fill:none;stroke:#000;stroke-width:3px;"/>
            </g>
        </g>
        <path d="M294.709,133.932L295.117,146.624L298.78,150.243C301.002,158.425 301.072,166.631 300.752,174.842C299.912,168.126 299.206,158.084 296.979,155.532L298.177,192.861L296.209,192.924L293.867,169.084L293.059,193.025L291.09,193.088L290.262,155C288.608,163.264 287.093,166.282 282.674,164.212C286.349,161.15 287.819,157.169 288.913,149.812L291.967,146.725L292.193,141.486L288.182,139.342L294.709,133.932Z" style="fill:none;stroke:#000;stroke-width:3px;"/>
        <g>
            <path d="M297.069,47.02L297.862,54.566L295.31,58.649L290.591,59.144L287.836,55.619L287.732,48.954" style="fill:none;stroke:#000;stroke-width:3px;"/>
            <path d="M293.543,61.695L293.215,72.22L295.426,79.617L296.615,90.936" style="fill:none;stroke:#000;stroke-width:3px;"/>
            <path d="M293.215,72.22L287.707,77.09L285.704,92.082" style="fill:none;stroke:#000;stroke-width:3px;"/>
        </g>
        <path d="M311.185,32.555L272.947,32.555L272.514,113.706C279.018,114.506 282.665,118.29 282.674,123.673C282.683,129.133 280.982,133.304 272.404,134.2L271.991,211.621L311.575,202.291L311.185,32.555Z" style="fill:none;stroke:#000;stroke-width:3px;"/>
        <path d="M437.762,33.511L476.001,33.511L476.434,114.662C469.93,115.462 466.282,119.246 466.273,124.629C466.264,130.089 467.966,134.26 476.544,135.156L476.957,212.577L437.373,203.247L437.762,33.511Z" style="fill:none;stroke:#000;stroke-width:3px;"/>
        <path d="M316.953,196.956L329.308,172.427L331.164,32.555" style="fill:none;stroke:#000;stroke-width:3px;"/>
        <path d="M428.769,199.623L418.659,175.094L417.14,35.223" style="fill:none;stroke:#000;stroke-width:3px;"/>
    </g>
    <g>
        <path d="M561.325,309.801L534.749,311.4L534.895,316.751L558.215,315.146L546.63,316.129L530.557,316.569L523.621,320.607C522.161,324.209 522.45,327.987 524.276,331.92C535.031,333.173 545.765,332.622 556.487,330.908C547.177,331.531 535.518,334.639 531.044,340.4L539.423,349.279C547.478,347.231 562.448,355.262 566.458,348.327C568.006,345.649 571.53,344.124 576.193,343.212L591.396,342.972C599.801,346.994 606.534,346.942 617.161,350.04C622.098,346.261 624.659,337.814 621.446,332.045L611.035,332.329L624.776,331.955L629.72,329.224C632.038,325.572 632.51,321.511 629.521,316.683C624.496,315.169 619.502,316.041 614.511,317.253L622.225,315.234L619.988,307.741L607.213,306.273L596.57,309.201C599.093,313.223 593.732,317.237 591.391,321.764C581.636,321.217 577.454,321.5 572.81,323.445C567.07,319.52 565.192,315.267 561.325,309.801Z" style="fill:none;stroke:#000;stroke-width:3px;"/>
        <path d="M557.487,269.303C556.616,274.935 555.275,281.093 557.773,286.186C558.874,288.43 558.413,290.7 558.744,292.957C560.084,296.413 562.552,297.004 565.455,300.564C566.373,301.69 567.108,305.744 568.158,306.879C571.178,309.239 571.824,313.303 572.185,317.572L577.044,317.548L576.431,309.837C575.515,306.89 578.634,304.483 576.822,303.57C568.025,299.138 569.793,295.534 576.216,296.299C569.247,292.064 565.03,287.606 567.773,282.582C571.155,284.684 574.07,291.383 576.087,288.177L575.797,269.899C570.255,258.937 567.131,251.284 575.632,259.543C579.084,255.318 580.283,249.799 580.342,243.626L583.821,257.232C582.678,258.868 587.994,259.2 588.286,257.574C590.122,247.36 582.957,258.389 582.125,268.012C581.998,269.478 583.088,270.846 583.764,272.262C588.972,258.943 593.775,265.225 587.485,273.899C584.774,277.637 584.182,283.006 584.857,288.98C590.796,282.087 589.787,287.226 584.905,299.074C582.422,300.651 584.06,301.84 584.48,306.455C584.707,308.956 583.165,314.307 583.636,317.064C585.622,318.495 592.773,319.456 590.775,314.337C588.569,308.683 588.931,304.437 593.352,302.797L599.518,286.85C595.36,290.042 591.766,293.35 592.829,283.69L597.975,272.788C602.003,265.5 604.251,258.558 601.704,252.552C594.214,263.081 592.432,261.278 595.492,249.013C598.451,242.229 599.499,236.858 598.239,233.194C596.4,237.456 594.101,239.895 591.209,239.992L590.997,226.624C590.235,207.404 587.083,203.424 585.647,213.197C584.98,217.736 583.074,197.115 582.1,193.088C581.402,197.633 575.248,200.373 576.817,203.711C579.874,210.214 574.282,204.321 572.884,204.584C572.543,206.686 572.222,210.811 572.68,211.57C574.21,214.11 577.719,213.85 579.577,217.808C578.77,222.823 576.043,222.673 571.834,218.535C571.022,222.809 573.328,229.389 575.711,233.552L566.89,227.006L567.103,240.374C570.709,246.76 570.607,249.648 567.247,249.462L561.215,240.468C561.264,243.509 562.13,246.477 562.656,249.535C563.647,255.284 564.897,261.143 567.524,266.948C564.929,271.728 561.935,268.396 558.9,264.219C555.49,258.798 555.425,261.475 557.487,269.303Z" style="fill:none;stroke:#000;stroke-width:3px;"/>
        <path d="M620.063,333.63C616.764,335.52 614.772,338.3 615.265,342.774L616.788,350.308" style="fill:none;stroke:#000;stroke-width:3px;"/>
        <path d="M544.176,325.051L557.059,324.847" style="fill:none;stroke:#000;stroke-width:3px;"/>
        <path d="M557.781,340.428L569.299,335.458" style="fill:none;stroke:#000;stroke-width:3px;"/>
    </g>
    <g>
        <path d="M378.838,71.075C383.608,70.785 386.387,75.848 387.092,86.489" style="fill:none;stroke:#000;stroke-width:3px;"/>
        <path d="M378.461,103.119C375.409,109.084 372.008,112.114 366.438,110.614C363.184,109.737 356.426,123.594 353.205,121.914C349.563,120.014 353.622,116.462 358.561,110.784C360.547,108.501 356.826,103.673 358.64,99.877C359.64,102.562 361.502,104.415 364.535,105.139" style="fill:none;stroke:#000;stroke-width:3px;"/>
        <path d="M360.835,86.206C363.708,90.253 376.077,88.064 375.729,97.79" style="fill:none;stroke:#000;stroke-width:3px;"/>
        <path d="M368.696,98.754C361.188,98.792 359.146,90.974 362.164,75.886C368.495,66.434 376.088,63.867 385.093,68.998C398.125,81.983 387.685,107.455 369.642,124.028" style="fill:none;stroke:#000;stroke-width:3px;"/>
        <path d="M350.584,79.728C370.468,51.021 381.227,58.125 392.08,68.156C397.477,73.145 400.986,86.713 395.876,98.272C392.477,105.959 388.472,115.346 381.901,123.336C375.799,130.756 365.632,138.618 361.103,140.196C357.873,141.322 354.706,139.879 352.368,136.9" style="fill:none;stroke:#000;stroke-width:3px;"/>
    </g>
    <path d="M330.94,170.909L416.506,173.161" style="fill:none;stroke:#000;stroke-width:3px;"/>
    <g>
        <g>
            <path d="M575.031,46.35C564.555,65.403 565.251,84.232 574.114,102.895C583.147,84.085 584.352,65.24 575.031,46.35Z" style="fill:none;stroke:#000;stroke-width:3px;"/>
            <path d="M574.733,66.408C569.199,77.886 569.567,89.228 574.248,100.472C579.02,89.14 579.657,77.788 574.733,66.408Z" style="fill:none;stroke:#000;stroke-width:3px;"/>
            <ellipse cx="574.885" cy="44.68" rx="2.696" ry="2.783" style="fill:#ebebeb;stroke:#000;stroke-width:3px;"/>
            <path d="M574.399,36.331C573.524,34.451 571.826,32.299 569.547,32.435C552.026,33.483 561.467,110.73 572.529,102.895C573.04,102.533 575.014,102.507 575.512,102.895C586.649,111.575 597.146,32.305 579.252,32.435C576.384,32.456 574.896,34.414 574.399,36.331Z" style="fill:none;stroke:#000;stroke-width:3px;"/>
        </g>
        <ellipse cx="574.36" cy="66.408" rx="54.461" ry="54.124" style="fill:none;stroke:#000;stroke-width:3px;"/>
    </g>
    <g>
        <path d="M76.898,108.536C104.028,109.163 125.536,131.6 124.898,158.61C124.26,185.619 101.716,207.038 74.587,206.411C47.457,205.784 25.949,183.347 26.587,156.338C27.225,129.329 49.769,107.909 76.898,108.536Z" style="fill:#fff;stroke:#000;stroke-width:3px;"/>
        <path d="M57.303,120.233L76.899,159.77L77.29,133.899" style="fill:none;stroke:#000;stroke-width:3px;"/>
    </g>
    <g>
        <path d="M672.109,120.546C699.239,121.173 720.747,143.61 720.109,170.619C719.471,197.628 696.927,219.047 669.798,218.42C642.668,217.793 621.16,195.356 621.798,168.347C622.436,141.338 644.98,119.919 672.109,120.546Z" style="fill:#fff;stroke:#000;stroke-width:3px;"/>
    </g>
    <path d="M339.742,244.209L405.375,244.935C415.54,231.934 421.932,242.497 417.12,251.82C416.276,253.456 421.838,257.262 420.794,259.614C417.502,267.026 409.771,266.219 407.413,254.503L402.188,253.385C387.789,254.943 372.129,253.285 357.1,252.938C351.641,252.812 346.92,254.324 341.446,254.153C341.738,254.188 342.717,261.517 336.592,261.69C334.058,261.762 330.953,261.091 331.866,256.185C332.469,252.946 334.884,251.428 333.138,249.176C326.537,240.661 336.61,230.081 339.742,244.209Z" style="fill:none;stroke:#000;stroke-width:3px;"/>
    <g>
        <path d="M347.453,284.247L357.961,284.247" style="fill:none;stroke:#000;stroke-width:3px;"/>
        <path d="M367.343,284.247L401.12,284.247" style="fill:none;stroke:#000;stroke-width:3px;"/>
        <path d="M343.7,294.755L372.222,294.755" style="fill:none;stroke:#000;stroke-width:3px;"/>
        <path d="M381.604,294.755L405.623,294.755" style="fill:none;stroke:#000;stroke-width:3px;"/>
        <path d="M340.698,306.014L409.001,306.014" style="fill:none;stroke:#000;stroke-width:3px;"/>
        <path d="M332.441,327.03L415.756,327.03" style="fill:none;stroke:#000;stroke-width:3px;"/>
        <path d="M336.194,316.522L348.954,316.522" style="fill:none;stroke:#000;stroke-width:3px;"/>
        <path d="M357.586,316.522L367.343,316.522" style="fill:none;stroke:#000;stroke-width:3px;"/>
        <path d="M375.224,316.522L412.003,316.522" style="fill:none;stroke:#000;stroke-width:3px;"/>
        <path d="M342.066,272.988L317.43,339.199L431.518,339.199L409.991,272.988L342.066,272.988Z" style="fill:none;stroke:#000;stroke-width:3px;"/>
    </g>
    <g>
        <path d="M670.064,142.434C661.367,142.114 654.705,140.096 655.196,137.931C655.687,135.765 663.146,134.267 671.843,134.587C680.54,134.907 687.202,136.924 686.711,139.09C686.22,141.255 678.761,142.754 670.064,142.434Z" style="fill:#fff;stroke:#000;stroke-width:3px;"/>
        <path d="M655.171,138.51L655.171,144.164C657.463,152.646 661.589,160.749 667.392,168.505C660.638,176.628 656.867,186.145 655.171,196.632L655.171,201.067C665.515,205.122 676.006,205.868 686.736,201.263L686.736,197.511C685.718,187.362 682.485,177.558 674.962,168.426C681.588,161.726 685.838,154.023 686.736,144.906L686.736,138.51" style="fill:none;stroke:#000;stroke-width:3px;"/>
        <path d="M655.171,144.181C669.569,147.841 679.845,147.565 686.736,144.055" style="fill:none;stroke:#000;stroke-width:3px;"/>
        <path d="M655.171,197.854C669.569,201.514 679.845,201.237 686.736,197.728" style="fill:none;stroke:#000;stroke-width:3px;"/>
        <path d="M664.429,158.514C666.476,157.346 668.557,156.292 670.954,156.259C672.167,155.669 673.389,156.751 674.89,157.47C675.885,157.946 677.109,157.835 678.149,158.514C677.368,160.953 675.225,163.528 672.475,166.163C672.296,167.49 671.75,168.762 670.954,169.996C670.564,171.319 670.79,176.171 670.954,182.288C671.01,184.405 670.871,186.624 670.954,188.969C673.484,191.02 677.821,191.324 682.68,191.123L683.346,195.484C676.979,198.546 668.586,197.893 658.455,195.542L659.36,191.195C663.096,190.923 666.799,190.768 670.954,188.969C671.407,180.338 671.609,172.985 670.954,169.996C670.077,167.543 669.643,165.456 668.563,164.251C665.66,161.013 665.332,159.868 664.429,158.514" style="fill:none;stroke:#000;stroke-width:3px;"/>
    </g>
    <path d="M82.088,26.659L85.336,18.541L86.264,27.941L94.152,26.232L89.048,32.213L96.008,34.777L88.12,36.486L86.264,46.313L83.48,36.913L75.82,42.895L79.768,33.923L70.488,32.641L79.768,29.65L74.892,23.241L82.088,26.659Z" style="fill:none;stroke:#000;stroke-width:3px;"/>
    <path d="M679.724,83.386L687.842,86.634L678.442,87.562L680.151,95.45L674.169,90.346L671.606,97.306L669.897,89.418L660.07,87.562L669.47,84.778L663.488,77.118L672.46,81.066L673.742,71.786L676.733,81.066L683.142,76.19L679.724,83.386Z" style="fill:none;stroke:#000;stroke-width:3px;"/>
    <path d="M42.363,69.904L49.074,73.039L41.125,73.507L42.265,80.463L37.423,75.784L35.001,81.773L33.861,74.817L25.658,72.835L33.677,70.746L28.932,63.832L36.336,67.611L37.767,59.547L39.933,67.767L45.513,63.739L42.363,69.904Z" style="fill:none;stroke:#000;stroke-width:3px;"/>
    <path d="M217.5,150.654L220.635,157.365L221.103,149.416L228.059,150.556L223.38,145.713L229.369,143.291L222.413,142.152L220.432,133.949L218.342,141.968L211.429,137.223L215.207,144.627L207.143,146.058L215.363,148.224L211.336,153.804L217.5,150.654Z" style="fill:none;stroke:#000;stroke-width:3px;"/>
    <path d="M505.986,134.705L499.275,131.57L507.224,131.102L506.084,124.146L510.926,128.825L513.348,122.836L514.488,129.792L522.691,131.774L514.672,133.863L519.417,140.777L512.013,136.998L510.582,145.062L508.416,136.842L502.836,140.87L505.986,134.705Z" style="fill:none;stroke:#000;stroke-width:3px;"/>
    <path d="M528.746,175.204L522.699,172.056L529.881,171.543L528.885,164.493L533.237,169.216L535.453,163.129L536.449,170.18L543.849,172.15L536.596,174.308L540.849,181.297L534.179,177.5L532.847,185.686L530.931,177.359L525.87,181.471L528.746,175.204Z" style="fill:none;stroke:#000;stroke-width:3px;"/>
    <path d="M658.853,37.847L652.806,34.7L659.988,34.187L658.992,27.137L663.343,31.86L665.56,25.773L666.556,32.823L673.956,34.793L666.702,36.951L670.955,43.94L664.286,40.144L662.954,48.33L661.037,40.003L655.977,44.115L658.853,37.847Z" style="fill:none;stroke:#000;stroke-width:3px;"/>
</svg>
