<?xml version="1.0" encoding="UTF-8" standalone="no"?>
<!DOCTYPE svg PUBLIC "-//W3C//DTD SVG 1.1//EN" "http://www.w3.org/Graphics/SVG/1.1/DTD/svg11.dtd">
<svg width="150px" height="150px" version="1.1" xmlns="http://www.w3.org/2000/svg" xmlns:xlink="http://www.w3.org/1999/xlink" xml:space="preserve" xmlns:serif="http://www.serif.com/" style="fill-rule:evenodd;clip-rule:evenodd;stroke-linecap:round;stroke-linejoin:round;stroke-miterlimit:1.5;">
    <g>
        <g>
            <path d="M44.609,46.999L47.067,47.029C47.067,47.029 48.344,39.487 47.786,37.206C46.79,35.91 46.055,34.595 46.402,33.252L38.638,33.297C39.187,35.184 37.051,37.322 37.051,37.322L38.183,47.041L40.705,46.963L40.435,50.345C37.353,50.615 34.852,51.529 31.771,52.188C29.668,64.533 23.551,72.062 15.356,73.909C26.068,75.841 33.304,64.382 33.784,56.209C35.714,62.666 37.253,72.075 37.279,79.292C36.904,90.557 37.061,112.012 38.269,122.646L40.366,122.586C39.176,111.417 39.367,90.344 40.15,79.457L46.472,79.411C46.602,90.632 48.116,111.296 47.386,122.743L49.71,122.848C50.56,111.569 48.888,90.002 49.289,78.767C50.734,70.341 49.059,75.307 52.292,55.459C54.284,68.325 53.148,86.491 54.667,91.121C55.814,84.452 56.733,52.06 53.469,51.388L44.754,50.266L44.609,46.999Z" style="fill:#fff;stroke:#000;stroke-width:2px;"/>
            <path d="M39.612,74.435C41.251,75.472 44.866,75.458 47.035,74.172" style="fill:#fff;stroke:#000;stroke-width:2px;"/>
        </g>
        <g>
            <path d="M18.299,67.33C18.356,63.36 18.514,61.421 18.039,57.538L15.65,57.512C15.217,66.06 15.417,67.48 15.362,76.253C15.359,76.844 17.64,77.123 18.081,76.488L18.21,71.172L18.299,67.33" style="fill:#fff;stroke:#000;stroke-width:2px;"/>
            <path d="M16.704,56.77L16.733,54.357L16.722,55.274C16.943,56.232 19.336,55.114 18.175,52.772C17.817,52.049 16.36,50.05 16.793,49.168C14.14,52.576 14.71,56.424 16.726,54.928" style="fill:#fff;stroke:#000;stroke-width:2px;"/>
        </g>
        <path d="M14.951,71.572L16.099,72.293C17.153,73.075 16.634,74.584 15.009,74.52C14.248,73.722 13.447,72.957 14.951,71.572Z" style="fill:#fff;stroke:#000;stroke-width:2px;"/>
    </g>
</svg>
