<?xml version="1.0" encoding="UTF-8" standalone="no"?>
<!DOCTYPE svg PUBLIC "-//W3C//DTD SVG 1.1//EN" "http://www.w3.org/Graphics/SVG/1.1/DTD/svg11.dtd">
<svg width="150px" height="150px" version="1.1" xmlns="http://www.w3.org/2000/svg" xmlns:xlink="http://www.w3.org/1999/xlink" xml:space="preserve" xmlns:serif="http://www.serif.com/" style="fill-rule:evenodd;clip-rule:evenodd;stroke-linecap:round;stroke-linejoin:round;stroke-miterlimit:1.5;">
    <g>
        <path d="M37.056,40.427C25.94,40.019 17.425,37.44 18.053,34.672C18.68,31.904 28.214,29.989 39.33,30.398C50.445,30.807 58.961,33.385 58.333,36.153C57.706,38.921 48.172,40.836 37.056,40.427Z" style="fill:#fff;stroke:#000;stroke-width:2px;"/>
        <path d="M18.02,35.413L18.02,42.639C20.95,53.48 26.223,63.837 33.641,73.75C25.008,84.132 20.188,96.297 18.02,109.701L18.02,115.369C31.241,120.552 44.651,121.505 58.366,115.619L58.366,110.824C57.063,97.852 52.932,85.321 43.317,73.649C51.785,65.085 57.218,55.24 58.366,43.587L58.366,35.413" style="fill:none;stroke:#000;stroke-width:2px;"/>
        <path d="M18.02,42.661C36.423,47.339 49.557,46.985 58.366,42.5" style="fill:none;stroke:#000;stroke-width:2px;"/>
        <path d="M18.02,111.262C36.423,115.94 49.557,115.586 58.366,111.101" style="fill:none;stroke:#000;stroke-width:2px;"/>
        <path d="M28.845,61.712C31.779,60.24 34.764,58.913 38.201,58.871C39.941,58.128 41.694,59.491 43.847,60.396C45.274,60.996 47.029,60.856 48.52,61.712C47.401,64.783 46.269,66.473 42.325,69.792C42.068,71.462 40.038,72.284 40.142,74.619C40.221,76.387 38.844,81.856 39.282,91.653C39.401,94.317 39.247,97.113 39.366,100.066C42.995,102.65 48.05,103.033 55.018,102.78L55.973,108.271C46.843,112.128 34.805,111.305 20.276,108.345L21.574,102.87C26.932,102.527 31.383,102.332 37.34,100.066C37.559,89.208 36.725,78.004 37.34,74.224C36.083,71.135 35.545,70.842 33.996,69.324C29.834,65.247 30.14,63.417 28.845,61.712" style="fill:none;stroke:#000;stroke-width:2px;"/>
    </g>
</svg>
